M48
; DRILL file {KiCad 8.0.2} date 2024-05-20T12:28:41-0400
; FORMAT={-:-/ absolute / inch / decimal}
; #@! TF.CreationDate,2024-05-20T12:28:41-04:00
; #@! TF.GenerationSoftware,Kicad,Pcbnew,8.0.2
; #@! TF.FileFunction,Plated,1,2,PTH
FMAT,2
INCH
; #@! TA.AperFunction,Plated,PTH,ComponentDrill
T1C0.0394
; #@! TA.AperFunction,Plated,PTH,ComponentDrill
T2C0.0420
%
G90
G05
T1
X5.15Y-2.7
X5.15Y-3.04
X5.15Y-3.36
X5.15Y-4.1
X5.15Y-4.44
X5.15Y-4.78
X5.25Y-2.7
X5.25Y-3.04
X5.25Y-3.36
X5.25Y-4.1
X5.25Y-4.44
X5.25Y-4.78
X6.01Y-2.7
X6.01Y-3.04
X6.01Y-3.36
X6.01Y-4.1
X6.01Y-4.44
X6.01Y-4.78
X6.11Y-2.7
X6.11Y-3.04
X6.11Y-3.36
X6.11Y-4.1
X6.11Y-4.44
X6.11Y-4.78
T2
X6.72Y-3.32
X6.72Y-3.42
X6.72Y-3.52
X6.72Y-3.62
X6.72Y-3.72
X6.72Y-3.82
X6.72Y-3.92
M30
