%TF.GenerationSoftware,KiCad,Pcbnew,8.0.2*%
%TF.CreationDate,2024-05-20T12:28:02-04:00*%
%TF.ProjectId,Traffic_Light_PCBv01,54726166-6669-4635-9f4c-696768745f50,v02*%
%TF.SameCoordinates,Original*%
%TF.FileFunction,Copper,L1,Top*%
%TF.FilePolarity,Positive*%
%FSLAX46Y46*%
G04 Gerber Fmt 4.6, Leading zero omitted, Abs format (unit mm)*
G04 Created by KiCad (PCBNEW 8.0.2) date 2024-05-20 12:28:02*
%MOMM*%
%LPD*%
G01*
G04 APERTURE LIST*
G04 Aperture macros list*
%AMRoundRect*
0 Rectangle with rounded corners*
0 $1 Rounding radius*
0 $2 $3 $4 $5 $6 $7 $8 $9 X,Y pos of 4 corners*
0 Add a 4 corners polygon primitive as box body*
4,1,4,$2,$3,$4,$5,$6,$7,$8,$9,$2,$3,0*
0 Add four circle primitives for the rounded corners*
1,1,$1+$1,$2,$3*
1,1,$1+$1,$4,$5*
1,1,$1+$1,$6,$7*
1,1,$1+$1,$8,$9*
0 Add four rect primitives between the rounded corners*
20,1,$1+$1,$2,$3,$4,$5,0*
20,1,$1+$1,$4,$5,$6,$7,0*
20,1,$1+$1,$6,$7,$8,$9,0*
20,1,$1+$1,$8,$9,$2,$3,0*%
G04 Aperture macros list end*
%TA.AperFunction,ComponentPad*%
%ADD10R,2.000000X2.000000*%
%TD*%
%TA.AperFunction,ComponentPad*%
%ADD11C,2.000000*%
%TD*%
%TA.AperFunction,SMDPad,CuDef*%
%ADD12RoundRect,0.250000X0.312500X0.625000X-0.312500X0.625000X-0.312500X-0.625000X0.312500X-0.625000X0*%
%TD*%
%TA.AperFunction,SMDPad,CuDef*%
%ADD13RoundRect,0.200000X0.200000X0.275000X-0.200000X0.275000X-0.200000X-0.275000X0.200000X-0.275000X0*%
%TD*%
%TA.AperFunction,ComponentPad*%
%ADD14R,1.574800X1.574800*%
%TD*%
%TA.AperFunction,ComponentPad*%
%ADD15C,1.574800*%
%TD*%
%TA.AperFunction,Conductor*%
%ADD16C,0.762000*%
%TD*%
G04 APERTURE END LIST*
D10*
%TO.P,D10,1,K*%
%TO.N,GND*%
X155194000Y-104140000D03*
D11*
%TO.P,D10,2,A*%
%TO.N,Net-(D10-A)*%
X152654000Y-104140000D03*
%TD*%
D10*
%TO.P,D9,1,K*%
%TO.N,GND*%
X130810000Y-121412000D03*
D11*
%TO.P,D9,2,A*%
%TO.N,Net-(D12-A)*%
X133350000Y-121412000D03*
%TD*%
D10*
%TO.P,D3,1,K*%
%TO.N,GND*%
X130810000Y-85344000D03*
D11*
%TO.P,D3,2,A*%
%TO.N,Net-(D3-A)*%
X133350000Y-85344000D03*
%TD*%
D12*
%TO.P,R6,1*%
%TO.N,/EW_GREEN*%
X164977000Y-105664000D03*
%TO.P,R6,2*%
%TO.N,Net-(D12-A)*%
X162052000Y-105664000D03*
%TD*%
D13*
%TO.P,R2,1*%
%TO.N,/NS_YELLOW*%
X164210000Y-86868000D03*
%TO.P,R2,2*%
%TO.N,Net-(D2-A)*%
X162560000Y-86868000D03*
%TD*%
D10*
%TO.P,D11,1,K*%
%TO.N,GND*%
X155194000Y-112776000D03*
D11*
%TO.P,D11,2,A*%
%TO.N,Net-(D11-A)*%
X152654000Y-112776000D03*
%TD*%
D10*
%TO.P,D6,1,K*%
%TO.N,GND*%
X155194000Y-85344000D03*
D11*
%TO.P,D6,2,A*%
%TO.N,Net-(D3-A)*%
X152654000Y-85344000D03*
%TD*%
D10*
%TO.P,D4,1,K*%
%TO.N,GND*%
X155194000Y-68580000D03*
D11*
%TO.P,D4,2,A*%
%TO.N,Net-(D1-A)*%
X152654000Y-68580000D03*
%TD*%
D10*
%TO.P,D8,1,K*%
%TO.N,GND*%
X130810000Y-112776000D03*
D11*
%TO.P,D8,2,A*%
%TO.N,Net-(D11-A)*%
X133350000Y-112776000D03*
%TD*%
D10*
%TO.P,D5,1,K*%
%TO.N,GND*%
X155194000Y-77216000D03*
D11*
%TO.P,D5,2,A*%
%TO.N,Net-(D2-A)*%
X152654000Y-77216000D03*
%TD*%
D10*
%TO.P,D12,1,K*%
%TO.N,GND*%
X155194000Y-121412000D03*
D11*
%TO.P,D12,2,A*%
%TO.N,Net-(D12-A)*%
X152654000Y-121412000D03*
%TD*%
D13*
%TO.P,R5,1*%
%TO.N,/EW_YELLOW*%
X164210000Y-100584000D03*
%TO.P,R5,2*%
%TO.N,Net-(D11-A)*%
X162560000Y-100584000D03*
%TD*%
D12*
%TO.P,R3,1*%
%TO.N,/NS_GREEN*%
X164977000Y-91440000D03*
%TO.P,R3,2*%
%TO.N,Net-(D3-A)*%
X162052000Y-91440000D03*
%TD*%
D10*
%TO.P,D2,1,K*%
%TO.N,GND*%
X130810000Y-77216000D03*
D11*
%TO.P,D2,2,A*%
%TO.N,Net-(D2-A)*%
X133350000Y-77216000D03*
%TD*%
D14*
%TO.P,J1,1*%
%TO.N,GND*%
X170688000Y-99568000D03*
D15*
%TO.P,J1,2*%
%TO.N,/EW_GREEN*%
X170688000Y-97028000D03*
%TO.P,J1,3*%
%TO.N,/EW_YELLOW*%
X170688000Y-94488000D03*
%TO.P,J1,4*%
%TO.N,/EW_RED*%
X170688000Y-91948000D03*
%TO.P,J1,5*%
%TO.N,/NS_GREEN*%
X170688000Y-89408000D03*
%TO.P,J1,6*%
%TO.N,/NS_YELLOW*%
X170688000Y-86868000D03*
%TO.P,J1,7*%
%TO.N,/NS_RED*%
X170688000Y-84328000D03*
%TD*%
D13*
%TO.P,R1,1*%
%TO.N,/NS_RED*%
X164084000Y-82296000D03*
%TO.P,R1,2*%
%TO.N,Net-(D1-A)*%
X162434000Y-82296000D03*
%TD*%
D10*
%TO.P,D1,1,K*%
%TO.N,GND*%
X130810000Y-68580000D03*
D11*
%TO.P,D1,2,A*%
%TO.N,Net-(D1-A)*%
X133350000Y-68580000D03*
%TD*%
D10*
%TO.P,D7,1,K*%
%TO.N,GND*%
X130810000Y-104140000D03*
D11*
%TO.P,D7,2,A*%
%TO.N,Net-(D10-A)*%
X133350000Y-104140000D03*
%TD*%
D13*
%TO.P,R4,1*%
%TO.N,/EW_RED*%
X164210000Y-96012000D03*
%TO.P,R4,2*%
%TO.N,Net-(D10-A)*%
X162560000Y-96012000D03*
%TD*%
D16*
%TO.N,GND*%
X155194000Y-122174000D02*
X152908000Y-124460000D01*
X132080000Y-124460000D02*
X130810000Y-123190000D01*
X130810000Y-81280000D02*
X153670000Y-81280000D01*
X150876000Y-117348000D02*
X130810000Y-117348000D01*
X130810000Y-77216000D02*
X130810000Y-73152000D01*
X155194000Y-66548000D02*
X153670000Y-65024000D01*
X130810000Y-104140000D02*
X130810000Y-107696000D01*
X130810000Y-81280000D02*
X130810000Y-81788000D01*
X130810000Y-115316000D02*
X130810000Y-117348000D01*
X130810000Y-107696000D02*
X130810000Y-108204000D01*
X153670000Y-65024000D02*
X132080000Y-65024000D01*
X130810000Y-73152000D02*
X153162000Y-73152000D01*
X130810000Y-123190000D02*
X130810000Y-121412000D01*
X130810000Y-81788000D02*
X130810000Y-85344000D01*
X130810000Y-85344000D02*
X130810000Y-104110000D01*
X130810000Y-117348000D02*
X130810000Y-119380000D01*
X132080000Y-65024000D02*
X130810000Y-66294000D01*
X170688000Y-105918000D02*
X155194000Y-121412000D01*
X153416000Y-108204000D02*
X155194000Y-106426000D01*
X130810000Y-66294000D02*
X130810000Y-68580000D01*
X130810000Y-111730000D02*
X130810000Y-115316000D01*
X170688000Y-99568000D02*
X170688000Y-105918000D01*
X153162000Y-73152000D02*
X155194000Y-75184000D01*
X155194000Y-113030000D02*
X150876000Y-117348000D01*
X130810000Y-77216000D02*
X130810000Y-81280000D01*
X155194000Y-82804000D02*
X155194000Y-85344000D01*
X153670000Y-81280000D02*
X155194000Y-82804000D01*
X130810000Y-120650000D02*
X130810000Y-119380000D01*
X130810000Y-108204000D02*
X153416000Y-108204000D01*
X155194000Y-68580000D02*
X155194000Y-66548000D01*
X155194000Y-75184000D02*
X155194000Y-77216000D01*
X152908000Y-124460000D02*
X132080000Y-124460000D01*
X155194000Y-106426000D02*
X155194000Y-104140000D01*
X130810000Y-108204000D02*
X130810000Y-111730000D01*
X130810000Y-73152000D02*
X130810000Y-68580000D01*
%TO.N,Net-(D1-A)*%
X133350000Y-68580000D02*
X152654000Y-68580000D01*
X152654000Y-68580000D02*
X152654000Y-69850000D01*
X162434000Y-79630000D02*
X162434000Y-82296000D01*
X152654000Y-69850000D02*
X162434000Y-79630000D01*
%TO.N,Net-(D2-A)*%
X153670000Y-79502000D02*
X154940000Y-79502000D01*
X152654000Y-77216000D02*
X152654000Y-78486000D01*
X154940000Y-79502000D02*
X162306000Y-86868000D01*
X162306000Y-86868000D02*
X162560000Y-86868000D01*
X152654000Y-78486000D02*
X153670000Y-79502000D01*
X133350000Y-77216000D02*
X152654000Y-77216000D01*
%TO.N,Net-(D3-A)*%
X133096000Y-85344000D02*
X152654000Y-85344000D01*
X152654000Y-85344000D02*
X152654000Y-87376000D01*
X152654000Y-87376000D02*
X156718000Y-91440000D01*
X156718000Y-91440000D02*
X162052000Y-91440000D01*
%TO.N,Net-(D10-A)*%
X152654000Y-104140000D02*
X152654000Y-101854000D01*
X152654000Y-101854000D02*
X158496000Y-96012000D01*
X158496000Y-96012000D02*
X162560000Y-96012000D01*
X133350000Y-104140000D02*
X152654000Y-104140000D01*
%TO.N,Net-(D11-A)*%
X159004000Y-104140000D02*
X162560000Y-100584000D01*
X152654000Y-112776000D02*
X152654000Y-111506000D01*
X155194000Y-110236000D02*
X159004000Y-106426000D01*
X159004000Y-106426000D02*
X159004000Y-104140000D01*
X152654000Y-111506000D02*
X153924000Y-110236000D01*
X153924000Y-110236000D02*
X155194000Y-110236000D01*
X133350000Y-112776000D02*
X152654000Y-112776000D01*
%TO.N,Net-(D12-A)*%
X162052000Y-110236000D02*
X162052000Y-105664000D01*
X152654000Y-121412000D02*
X152654000Y-119634000D01*
X133350000Y-121412000D02*
X152654000Y-121412000D01*
X152654000Y-119634000D02*
X162052000Y-110236000D01*
%TO.N,/EW_GREEN*%
X170688000Y-97028000D02*
X164977000Y-102739000D01*
X164977000Y-102739000D02*
X164977000Y-105664000D01*
%TO.N,/EW_RED*%
X170688000Y-91948000D02*
X168274000Y-91948000D01*
X168274000Y-91948000D02*
X164210000Y-96012000D01*
%TO.N,/NS_GREEN*%
X167009000Y-89408000D02*
X164977000Y-91440000D01*
X170688000Y-89408000D02*
X167009000Y-89408000D01*
%TO.N,/NS_RED*%
X170688000Y-84328000D02*
X166116000Y-84328000D01*
X166116000Y-84328000D02*
X164084000Y-82296000D01*
%TO.N,/EW_YELLOW*%
X170688000Y-94488000D02*
X164592000Y-100584000D01*
%TO.N,/NS_YELLOW*%
X170688000Y-86868000D02*
X164210000Y-86868000D01*
%TD*%
%TA.AperFunction,Conductor*%
%TO.N,GND*%
G36*
X177242539Y-61480185D02*
G01*
X177288294Y-61532989D01*
X177299500Y-61584500D01*
X177299500Y-126375500D01*
X177279815Y-126442539D01*
X177227011Y-126488294D01*
X177175500Y-126499500D01*
X127624500Y-126499500D01*
X127557461Y-126479815D01*
X127511706Y-126427011D01*
X127500500Y-126375500D01*
X127500500Y-122460581D01*
X129302000Y-122460581D01*
X129308506Y-122521097D01*
X129359553Y-122657961D01*
X129447096Y-122774903D01*
X129564038Y-122862445D01*
X129564038Y-122862446D01*
X129700902Y-122913493D01*
X129761418Y-122919999D01*
X129761420Y-122920000D01*
X130429000Y-122920000D01*
X130429000Y-121793000D01*
X129302000Y-121793000D01*
X129302000Y-122460581D01*
X127500500Y-122460581D01*
X127500500Y-121346174D01*
X130310000Y-121346174D01*
X130310000Y-121477826D01*
X130344075Y-121604993D01*
X130409901Y-121719007D01*
X130502993Y-121812099D01*
X130617007Y-121877925D01*
X130744174Y-121912000D01*
X130875826Y-121912000D01*
X131002993Y-121877925D01*
X131117007Y-121812099D01*
X131191000Y-121738106D01*
X131191000Y-122920000D01*
X131858580Y-122920000D01*
X131858581Y-122919999D01*
X131919097Y-122913493D01*
X132055961Y-122862446D01*
X132055961Y-122862445D01*
X132172903Y-122774903D01*
X132265761Y-122650862D01*
X132267469Y-122652140D01*
X132308396Y-122611205D01*
X132376667Y-122596346D01*
X132442134Y-122620756D01*
X132448358Y-122625734D01*
X132460584Y-122636176D01*
X132460586Y-122636177D01*
X132460589Y-122636179D01*
X132663037Y-122760240D01*
X132663040Y-122760242D01*
X132882403Y-122851104D01*
X132882404Y-122851104D01*
X132882406Y-122851105D01*
X133113289Y-122906535D01*
X133350000Y-122925165D01*
X133586711Y-122906535D01*
X133817594Y-122851105D01*
X133817596Y-122851104D01*
X133817597Y-122851104D01*
X134036959Y-122760242D01*
X134036960Y-122760241D01*
X134036963Y-122760240D01*
X134239416Y-122636176D01*
X134419969Y-122481969D01*
X134536979Y-122344968D01*
X134595486Y-122306775D01*
X134631269Y-122301500D01*
X151372731Y-122301500D01*
X151439770Y-122321185D01*
X151467021Y-122344968D01*
X151584031Y-122481969D01*
X151717949Y-122596346D01*
X151764586Y-122636178D01*
X151764589Y-122636179D01*
X151967037Y-122760240D01*
X151967040Y-122760242D01*
X152186403Y-122851104D01*
X152186404Y-122851104D01*
X152186406Y-122851105D01*
X152417289Y-122906535D01*
X152654000Y-122925165D01*
X152890711Y-122906535D01*
X153121594Y-122851105D01*
X153121596Y-122851104D01*
X153121597Y-122851104D01*
X153340959Y-122760242D01*
X153340960Y-122760241D01*
X153340963Y-122760240D01*
X153543416Y-122636176D01*
X153555632Y-122625741D01*
X153619388Y-122597171D01*
X153688475Y-122607605D01*
X153737940Y-122651085D01*
X153738239Y-122650862D01*
X153739303Y-122652284D01*
X153740953Y-122653734D01*
X153743027Y-122657258D01*
X153831096Y-122774903D01*
X153948038Y-122862445D01*
X153948038Y-122862446D01*
X154084902Y-122913493D01*
X154145418Y-122919999D01*
X154145420Y-122920000D01*
X154813000Y-122920000D01*
X155575000Y-122920000D01*
X156242580Y-122920000D01*
X156242581Y-122919999D01*
X156303097Y-122913493D01*
X156439961Y-122862446D01*
X156439961Y-122862445D01*
X156556903Y-122774903D01*
X156644445Y-122657961D01*
X156644446Y-122657961D01*
X156695493Y-122521097D01*
X156701999Y-122460581D01*
X156702000Y-122460580D01*
X156702000Y-121793000D01*
X155575000Y-121793000D01*
X155575000Y-122920000D01*
X154813000Y-122920000D01*
X154813000Y-121738106D01*
X154886993Y-121812099D01*
X155001007Y-121877925D01*
X155128174Y-121912000D01*
X155259826Y-121912000D01*
X155386993Y-121877925D01*
X155501007Y-121812099D01*
X155594099Y-121719007D01*
X155659925Y-121604993D01*
X155694000Y-121477826D01*
X155694000Y-121346174D01*
X155659925Y-121219007D01*
X155594099Y-121104993D01*
X155520106Y-121031000D01*
X155575000Y-121031000D01*
X156702000Y-121031000D01*
X156702000Y-120363420D01*
X156701999Y-120363418D01*
X156695493Y-120302902D01*
X156644446Y-120166038D01*
X156556903Y-120049096D01*
X156439961Y-119961554D01*
X156439961Y-119961553D01*
X156303097Y-119910506D01*
X156242581Y-119904000D01*
X155575000Y-119904000D01*
X155575000Y-121031000D01*
X155520106Y-121031000D01*
X155501007Y-121011901D01*
X155386993Y-120946075D01*
X155259826Y-120912000D01*
X155128174Y-120912000D01*
X155001007Y-120946075D01*
X154886993Y-121011901D01*
X154813000Y-121085894D01*
X154813000Y-119904000D01*
X154145418Y-119904000D01*
X154084902Y-119910506D01*
X153948038Y-119961553D01*
X153948033Y-119961556D01*
X153889528Y-120005353D01*
X153824064Y-120029770D01*
X153755791Y-120014918D01*
X153706386Y-119965513D01*
X153691534Y-119897240D01*
X153715951Y-119831775D01*
X153727530Y-119818412D01*
X162742920Y-110803023D01*
X162840265Y-110657336D01*
X162907317Y-110495458D01*
X162941500Y-110323608D01*
X162941500Y-110148392D01*
X162941500Y-106833534D01*
X162959962Y-106768437D01*
X163056610Y-106611746D01*
X163056609Y-106611746D01*
X163056615Y-106611738D01*
X163112387Y-106443426D01*
X163123000Y-106339545D01*
X163122999Y-104988456D01*
X163112387Y-104884574D01*
X163056615Y-104716262D01*
X162963530Y-104565348D01*
X162838152Y-104439970D01*
X162687238Y-104346885D01*
X162645314Y-104332993D01*
X162518927Y-104291113D01*
X162415046Y-104280500D01*
X161688962Y-104280500D01*
X161688946Y-104280501D01*
X161585072Y-104291113D01*
X161416764Y-104346884D01*
X161416759Y-104346886D01*
X161265846Y-104439971D01*
X161140471Y-104565346D01*
X161047386Y-104716259D01*
X161047384Y-104716264D01*
X160991613Y-104884572D01*
X160981000Y-104988447D01*
X160981000Y-106339537D01*
X160981001Y-106339553D01*
X160991613Y-106443427D01*
X161047384Y-106611735D01*
X161047389Y-106611746D01*
X161144038Y-106768437D01*
X161162500Y-106833534D01*
X161162500Y-109816195D01*
X161142815Y-109883234D01*
X161126181Y-109903876D01*
X156787594Y-114242462D01*
X156726271Y-114275947D01*
X156692721Y-114273547D01*
X156696465Y-114290757D01*
X156672049Y-114356222D01*
X156660462Y-114369594D01*
X152086977Y-118943080D01*
X152025027Y-119005029D01*
X151963078Y-119066978D01*
X151865738Y-119212657D01*
X151865731Y-119212670D01*
X151798684Y-119374537D01*
X151798681Y-119374549D01*
X151764500Y-119546387D01*
X151764500Y-120130730D01*
X151744815Y-120197769D01*
X151721032Y-120225020D01*
X151584031Y-120342031D01*
X151467021Y-120479032D01*
X151408514Y-120517225D01*
X151372731Y-120522500D01*
X134631269Y-120522500D01*
X134564230Y-120502815D01*
X134536979Y-120479032D01*
X134520993Y-120460316D01*
X134419969Y-120342031D01*
X134282967Y-120225020D01*
X134239413Y-120187821D01*
X134239410Y-120187820D01*
X134036962Y-120063759D01*
X134036959Y-120063757D01*
X133817596Y-119972895D01*
X133586714Y-119917465D01*
X133350000Y-119898835D01*
X133113285Y-119917465D01*
X132882404Y-119972895D01*
X132882402Y-119972895D01*
X132663040Y-120063757D01*
X132663037Y-120063759D01*
X132460586Y-120187821D01*
X132460575Y-120187829D01*
X132448364Y-120198259D01*
X132384602Y-120226828D01*
X132315517Y-120216389D01*
X132266062Y-120172912D01*
X132265761Y-120173138D01*
X132264686Y-120171702D01*
X132263042Y-120170257D01*
X132260973Y-120166742D01*
X132172903Y-120049096D01*
X132055961Y-119961554D01*
X132055961Y-119961553D01*
X131919097Y-119910506D01*
X131858581Y-119904000D01*
X131191000Y-119904000D01*
X131191000Y-121085894D01*
X131117007Y-121011901D01*
X131002993Y-120946075D01*
X130875826Y-120912000D01*
X130744174Y-120912000D01*
X130617007Y-120946075D01*
X130502993Y-121011901D01*
X130409901Y-121104993D01*
X130344075Y-121219007D01*
X130310000Y-121346174D01*
X127500500Y-121346174D01*
X127500500Y-120363418D01*
X129302000Y-120363418D01*
X129302000Y-121031000D01*
X130429000Y-121031000D01*
X130429000Y-119904000D01*
X129761418Y-119904000D01*
X129700902Y-119910506D01*
X129564038Y-119961553D01*
X129564038Y-119961554D01*
X129447096Y-120049096D01*
X129359554Y-120166038D01*
X129359553Y-120166038D01*
X129308506Y-120302902D01*
X129302000Y-120363418D01*
X127500500Y-120363418D01*
X127500500Y-113824581D01*
X129302000Y-113824581D01*
X129308506Y-113885097D01*
X129359553Y-114021961D01*
X129447096Y-114138903D01*
X129564038Y-114226445D01*
X129564038Y-114226446D01*
X129700902Y-114277493D01*
X129761418Y-114283999D01*
X129761420Y-114284000D01*
X130429000Y-114284000D01*
X130429000Y-113157000D01*
X129302000Y-113157000D01*
X129302000Y-113824581D01*
X127500500Y-113824581D01*
X127500500Y-111727418D01*
X129302000Y-111727418D01*
X129302000Y-112395000D01*
X130429000Y-112395000D01*
X130429000Y-111268000D01*
X129761418Y-111268000D01*
X129700902Y-111274506D01*
X129564038Y-111325553D01*
X129564038Y-111325554D01*
X129447096Y-111413096D01*
X129359554Y-111530038D01*
X129359553Y-111530038D01*
X129308506Y-111666902D01*
X129302000Y-111727418D01*
X127500500Y-111727418D01*
X127500500Y-105188581D01*
X129302000Y-105188581D01*
X129308506Y-105249097D01*
X129359553Y-105385961D01*
X129447096Y-105502903D01*
X129564038Y-105590445D01*
X129564038Y-105590446D01*
X129700902Y-105641493D01*
X129761418Y-105647999D01*
X129761420Y-105648000D01*
X130429000Y-105648000D01*
X130429000Y-104521000D01*
X129302000Y-104521000D01*
X129302000Y-105188581D01*
X127500500Y-105188581D01*
X127500500Y-103091418D01*
X129302000Y-103091418D01*
X129302000Y-103759000D01*
X130429000Y-103759000D01*
X130429000Y-102632000D01*
X129761418Y-102632000D01*
X129700902Y-102638506D01*
X129564038Y-102689553D01*
X129564038Y-102689554D01*
X129447096Y-102777096D01*
X129359554Y-102894038D01*
X129359553Y-102894038D01*
X129308506Y-103030902D01*
X129302000Y-103091418D01*
X127500500Y-103091418D01*
X127500500Y-86392581D01*
X129302000Y-86392581D01*
X129308506Y-86453097D01*
X129359553Y-86589961D01*
X129447096Y-86706903D01*
X129564038Y-86794445D01*
X129564038Y-86794446D01*
X129700902Y-86845493D01*
X129761418Y-86851999D01*
X129761420Y-86852000D01*
X130429000Y-86852000D01*
X130429000Y-85725000D01*
X129302000Y-85725000D01*
X129302000Y-86392581D01*
X127500500Y-86392581D01*
X127500500Y-85278174D01*
X130310000Y-85278174D01*
X130310000Y-85409826D01*
X130344075Y-85536993D01*
X130409901Y-85651007D01*
X130502993Y-85744099D01*
X130617007Y-85809925D01*
X130744174Y-85844000D01*
X130875826Y-85844000D01*
X131002993Y-85809925D01*
X131117007Y-85744099D01*
X131191000Y-85670106D01*
X131191000Y-86852000D01*
X131858580Y-86852000D01*
X131858581Y-86851999D01*
X131919097Y-86845493D01*
X132055961Y-86794446D01*
X132055961Y-86794445D01*
X132172903Y-86706903D01*
X132265761Y-86582862D01*
X132267469Y-86584140D01*
X132308396Y-86543205D01*
X132376667Y-86528346D01*
X132442134Y-86552756D01*
X132448358Y-86557734D01*
X132460584Y-86568176D01*
X132460586Y-86568177D01*
X132460589Y-86568179D01*
X132663037Y-86692240D01*
X132663040Y-86692242D01*
X132882403Y-86783104D01*
X132882404Y-86783104D01*
X132882406Y-86783105D01*
X133113289Y-86838535D01*
X133350000Y-86857165D01*
X133586711Y-86838535D01*
X133817594Y-86783105D01*
X133817596Y-86783104D01*
X133817597Y-86783104D01*
X134036959Y-86692242D01*
X134036960Y-86692241D01*
X134036963Y-86692240D01*
X134239416Y-86568176D01*
X134419969Y-86413969D01*
X134536979Y-86276968D01*
X134595486Y-86238775D01*
X134631269Y-86233500D01*
X151372731Y-86233500D01*
X151439770Y-86253185D01*
X151467021Y-86276968D01*
X151584033Y-86413971D01*
X151721031Y-86530978D01*
X151759225Y-86589484D01*
X151764500Y-86625268D01*
X151764500Y-87463612D01*
X151798681Y-87635450D01*
X151798684Y-87635462D01*
X151865731Y-87797329D01*
X151865738Y-87797342D01*
X151963079Y-87943022D01*
X151963082Y-87943026D01*
X156027080Y-92007023D01*
X156135594Y-92115537D01*
X156150978Y-92130921D01*
X156296657Y-92228261D01*
X156296670Y-92228268D01*
X156458537Y-92295315D01*
X156458542Y-92295317D01*
X156630387Y-92329499D01*
X156630391Y-92329500D01*
X156630392Y-92329500D01*
X160942257Y-92329500D01*
X161009296Y-92349185D01*
X161047793Y-92388400D01*
X161140470Y-92538652D01*
X161265848Y-92664030D01*
X161416762Y-92757115D01*
X161585074Y-92812887D01*
X161688955Y-92823500D01*
X162415044Y-92823499D01*
X162518926Y-92812887D01*
X162687238Y-92757115D01*
X162838152Y-92664030D01*
X162963530Y-92538652D01*
X163056615Y-92387738D01*
X163112387Y-92219426D01*
X163123000Y-92115545D01*
X163122999Y-90764456D01*
X163112387Y-90660574D01*
X163056615Y-90492262D01*
X162963530Y-90341348D01*
X162838152Y-90215970D01*
X162687238Y-90122885D01*
X162687235Y-90122884D01*
X162518927Y-90067113D01*
X162415046Y-90056500D01*
X161688962Y-90056500D01*
X161688946Y-90056501D01*
X161585072Y-90067113D01*
X161416764Y-90122884D01*
X161416759Y-90122886D01*
X161265846Y-90215971D01*
X161140471Y-90341346D01*
X161140470Y-90341348D01*
X161047794Y-90491598D01*
X160995848Y-90538321D01*
X160942257Y-90550500D01*
X157137805Y-90550500D01*
X157070766Y-90530815D01*
X157050124Y-90514181D01*
X153579819Y-87043876D01*
X153546334Y-86982553D01*
X153543500Y-86956195D01*
X153543500Y-86695281D01*
X153563185Y-86628242D01*
X153615989Y-86582487D01*
X153685147Y-86572543D01*
X153748703Y-86601568D01*
X153766767Y-86620970D01*
X153831096Y-86706903D01*
X153948038Y-86794445D01*
X153948038Y-86794446D01*
X154084902Y-86845493D01*
X154145418Y-86851999D01*
X154145420Y-86852000D01*
X154813000Y-86852000D01*
X155575000Y-86852000D01*
X156242580Y-86852000D01*
X156242581Y-86851999D01*
X156303097Y-86845493D01*
X156439961Y-86794446D01*
X156439961Y-86794445D01*
X156556903Y-86706903D01*
X156644445Y-86589961D01*
X156644446Y-86589961D01*
X156695493Y-86453097D01*
X156701999Y-86392581D01*
X156702000Y-86392580D01*
X156702000Y-85725000D01*
X155575000Y-85725000D01*
X155575000Y-86852000D01*
X154813000Y-86852000D01*
X154813000Y-85670106D01*
X154886993Y-85744099D01*
X155001007Y-85809925D01*
X155128174Y-85844000D01*
X155259826Y-85844000D01*
X155386993Y-85809925D01*
X155501007Y-85744099D01*
X155594099Y-85651007D01*
X155659925Y-85536993D01*
X155694000Y-85409826D01*
X155694000Y-85278174D01*
X155659925Y-85151007D01*
X155594099Y-85036993D01*
X155520106Y-84963000D01*
X155575000Y-84963000D01*
X156702000Y-84963000D01*
X156702000Y-84295420D01*
X156701999Y-84295418D01*
X156695493Y-84234902D01*
X156644446Y-84098038D01*
X156556903Y-83981096D01*
X156439961Y-83893554D01*
X156439961Y-83893553D01*
X156303097Y-83842506D01*
X156242581Y-83836000D01*
X155575000Y-83836000D01*
X155575000Y-84963000D01*
X155520106Y-84963000D01*
X155501007Y-84943901D01*
X155386993Y-84878075D01*
X155259826Y-84844000D01*
X155128174Y-84844000D01*
X155001007Y-84878075D01*
X154886993Y-84943901D01*
X154813000Y-85017894D01*
X154813000Y-83836000D01*
X154145418Y-83836000D01*
X154084902Y-83842506D01*
X153948038Y-83893553D01*
X153948038Y-83893554D01*
X153831096Y-83981096D01*
X153738239Y-84105138D01*
X153736533Y-84103861D01*
X153695578Y-84144807D01*
X153627303Y-84159651D01*
X153561842Y-84135226D01*
X153555641Y-84130265D01*
X153543416Y-84119824D01*
X153543414Y-84119822D01*
X153543412Y-84119821D01*
X153543410Y-84119820D01*
X153340962Y-83995759D01*
X153340959Y-83995757D01*
X153121596Y-83904895D01*
X152890714Y-83849465D01*
X152654000Y-83830835D01*
X152417285Y-83849465D01*
X152186404Y-83904895D01*
X152186402Y-83904895D01*
X151967040Y-83995757D01*
X151967037Y-83995759D01*
X151764589Y-84119820D01*
X151764586Y-84119821D01*
X151584031Y-84274031D01*
X151467021Y-84411032D01*
X151408514Y-84449225D01*
X151372731Y-84454500D01*
X134631269Y-84454500D01*
X134564230Y-84434815D01*
X134536979Y-84411032D01*
X134520993Y-84392316D01*
X134419969Y-84274031D01*
X134285084Y-84158828D01*
X134239413Y-84119821D01*
X134239410Y-84119820D01*
X134036962Y-83995759D01*
X134036959Y-83995757D01*
X133817596Y-83904895D01*
X133586714Y-83849465D01*
X133350000Y-83830835D01*
X133113285Y-83849465D01*
X132882404Y-83904895D01*
X132882402Y-83904895D01*
X132663040Y-83995757D01*
X132663037Y-83995759D01*
X132460586Y-84119821D01*
X132460575Y-84119829D01*
X132448364Y-84130259D01*
X132384602Y-84158828D01*
X132315517Y-84148389D01*
X132266062Y-84104912D01*
X132265761Y-84105138D01*
X132264686Y-84103702D01*
X132263042Y-84102257D01*
X132260973Y-84098742D01*
X132172903Y-83981096D01*
X132055961Y-83893554D01*
X132055961Y-83893553D01*
X131919097Y-83842506D01*
X131858581Y-83836000D01*
X131191000Y-83836000D01*
X131191000Y-85017894D01*
X131117007Y-84943901D01*
X131002993Y-84878075D01*
X130875826Y-84844000D01*
X130744174Y-84844000D01*
X130617007Y-84878075D01*
X130502993Y-84943901D01*
X130409901Y-85036993D01*
X130344075Y-85151007D01*
X130310000Y-85278174D01*
X127500500Y-85278174D01*
X127500500Y-84295418D01*
X129302000Y-84295418D01*
X129302000Y-84963000D01*
X130429000Y-84963000D01*
X130429000Y-83836000D01*
X129761418Y-83836000D01*
X129700902Y-83842506D01*
X129564038Y-83893553D01*
X129564038Y-83893554D01*
X129447096Y-83981096D01*
X129359554Y-84098038D01*
X129359553Y-84098038D01*
X129308506Y-84234902D01*
X129302000Y-84295418D01*
X127500500Y-84295418D01*
X127500500Y-78264581D01*
X129302000Y-78264581D01*
X129308506Y-78325097D01*
X129359553Y-78461961D01*
X129447096Y-78578903D01*
X129564038Y-78666445D01*
X129564038Y-78666446D01*
X129700902Y-78717493D01*
X129761418Y-78723999D01*
X129761420Y-78724000D01*
X130429000Y-78724000D01*
X130429000Y-77597000D01*
X129302000Y-77597000D01*
X129302000Y-78264581D01*
X127500500Y-78264581D01*
X127500500Y-76167418D01*
X129302000Y-76167418D01*
X129302000Y-76835000D01*
X130429000Y-76835000D01*
X130429000Y-75708000D01*
X129761418Y-75708000D01*
X129700902Y-75714506D01*
X129564038Y-75765553D01*
X129564038Y-75765554D01*
X129447096Y-75853096D01*
X129359554Y-75970038D01*
X129359553Y-75970038D01*
X129308506Y-76106902D01*
X129302000Y-76167418D01*
X127500500Y-76167418D01*
X127500500Y-69628581D01*
X129302000Y-69628581D01*
X129308506Y-69689097D01*
X129359553Y-69825961D01*
X129447096Y-69942903D01*
X129564038Y-70030445D01*
X129564038Y-70030446D01*
X129700902Y-70081493D01*
X129761418Y-70087999D01*
X129761420Y-70088000D01*
X130429000Y-70088000D01*
X130429000Y-68961000D01*
X129302000Y-68961000D01*
X129302000Y-69628581D01*
X127500500Y-69628581D01*
X127500500Y-68514174D01*
X130310000Y-68514174D01*
X130310000Y-68645826D01*
X130344075Y-68772993D01*
X130409901Y-68887007D01*
X130502993Y-68980099D01*
X130617007Y-69045925D01*
X130744174Y-69080000D01*
X130875826Y-69080000D01*
X131002993Y-69045925D01*
X131117007Y-68980099D01*
X131191000Y-68906106D01*
X131191000Y-70088000D01*
X131858580Y-70088000D01*
X131858581Y-70087999D01*
X131919097Y-70081493D01*
X132055961Y-70030446D01*
X132055961Y-70030445D01*
X132172903Y-69942903D01*
X132265761Y-69818862D01*
X132267469Y-69820140D01*
X132308396Y-69779205D01*
X132376667Y-69764346D01*
X132442134Y-69788756D01*
X132448358Y-69793734D01*
X132460584Y-69804176D01*
X132460586Y-69804177D01*
X132460589Y-69804179D01*
X132663037Y-69928240D01*
X132663040Y-69928242D01*
X132882403Y-70019104D01*
X132882404Y-70019104D01*
X132882406Y-70019105D01*
X133113289Y-70074535D01*
X133350000Y-70093165D01*
X133586711Y-70074535D01*
X133817594Y-70019105D01*
X133817596Y-70019104D01*
X133817597Y-70019104D01*
X134036959Y-69928242D01*
X134036960Y-69928241D01*
X134036963Y-69928240D01*
X134239416Y-69804176D01*
X134419969Y-69649969D01*
X134536979Y-69512968D01*
X134595486Y-69474775D01*
X134631269Y-69469500D01*
X151372731Y-69469500D01*
X151439770Y-69489185D01*
X151467021Y-69512968D01*
X151584033Y-69649971D01*
X151721031Y-69766978D01*
X151759225Y-69825484D01*
X151764500Y-69861268D01*
X151764500Y-69937612D01*
X151798681Y-70109450D01*
X151798684Y-70109462D01*
X151865731Y-70271329D01*
X151865738Y-70271342D01*
X151963079Y-70417022D01*
X151963082Y-70417026D01*
X161508181Y-79962124D01*
X161541666Y-80023447D01*
X161544500Y-80049805D01*
X161544500Y-81833321D01*
X161538885Y-81870211D01*
X161531988Y-81892344D01*
X161531987Y-81892346D01*
X161525500Y-81963737D01*
X161525500Y-82628272D01*
X161531985Y-82699645D01*
X161531988Y-82699655D01*
X161583171Y-82863909D01*
X161672186Y-83011158D01*
X161793841Y-83132813D01*
X161793843Y-83132814D01*
X161793845Y-83132816D01*
X161941087Y-83221827D01*
X162105351Y-83273013D01*
X162176735Y-83279500D01*
X162691264Y-83279499D01*
X162691272Y-83279499D01*
X162762645Y-83273014D01*
X162762648Y-83273013D01*
X162762649Y-83273013D01*
X162926913Y-83221827D01*
X163074155Y-83132816D01*
X163101373Y-83105598D01*
X163171319Y-83035653D01*
X163232642Y-83002168D01*
X163302334Y-83007152D01*
X163346681Y-83035653D01*
X163443841Y-83132813D01*
X163443843Y-83132814D01*
X163443845Y-83132816D01*
X163591087Y-83221827D01*
X163591090Y-83221828D01*
X163591089Y-83221828D01*
X163755344Y-83273011D01*
X163755355Y-83273014D01*
X163763124Y-83273720D01*
X163828108Y-83299389D01*
X163839586Y-83309530D01*
X165548973Y-85018917D01*
X165548977Y-85018920D01*
X165694657Y-85116261D01*
X165694670Y-85116268D01*
X165810317Y-85164170D01*
X165856542Y-85183317D01*
X166028387Y-85217499D01*
X166028391Y-85217500D01*
X166028392Y-85217500D01*
X166203608Y-85217500D01*
X169693459Y-85217500D01*
X169760498Y-85237185D01*
X169781140Y-85253819D01*
X169851828Y-85324507D01*
X169851834Y-85324512D01*
X170037570Y-85454566D01*
X170037572Y-85454567D01*
X170037575Y-85454569D01*
X170104160Y-85485618D01*
X170156599Y-85531790D01*
X170175751Y-85598984D01*
X170155535Y-85665865D01*
X170104160Y-85710382D01*
X170037574Y-85741431D01*
X170037570Y-85741433D01*
X169851834Y-85871487D01*
X169851828Y-85871492D01*
X169781140Y-85942181D01*
X169719817Y-85975666D01*
X169693459Y-85978500D01*
X164797573Y-85978500D01*
X164733424Y-85960617D01*
X164702915Y-85942174D01*
X164702914Y-85942173D01*
X164702913Y-85942173D01*
X164538649Y-85890987D01*
X164538647Y-85890986D01*
X164538645Y-85890986D01*
X164488667Y-85886444D01*
X164467265Y-85884500D01*
X164467262Y-85884500D01*
X163952727Y-85884500D01*
X163881354Y-85890985D01*
X163881344Y-85890988D01*
X163717090Y-85942171D01*
X163569841Y-86031186D01*
X163569840Y-86031187D01*
X163472681Y-86128347D01*
X163411358Y-86161832D01*
X163341666Y-86156848D01*
X163297319Y-86128347D01*
X163200158Y-86031186D01*
X163052913Y-85942173D01*
X163052907Y-85942171D01*
X162888649Y-85890987D01*
X162888647Y-85890986D01*
X162888645Y-85890986D01*
X162838667Y-85886444D01*
X162817265Y-85884500D01*
X162817262Y-85884500D01*
X162631805Y-85884500D01*
X162564766Y-85864815D01*
X162544124Y-85848181D01*
X155631625Y-78935681D01*
X155598140Y-78874358D01*
X155603124Y-78804666D01*
X155644996Y-78748733D01*
X155710460Y-78724316D01*
X155719306Y-78724000D01*
X156242580Y-78724000D01*
X156242581Y-78723999D01*
X156303097Y-78717493D01*
X156439961Y-78666446D01*
X156439961Y-78666445D01*
X156556903Y-78578903D01*
X156644445Y-78461961D01*
X156644446Y-78461961D01*
X156695493Y-78325097D01*
X156701999Y-78264581D01*
X156702000Y-78264580D01*
X156702000Y-77597000D01*
X155520106Y-77597000D01*
X155594099Y-77523007D01*
X155659925Y-77408993D01*
X155694000Y-77281826D01*
X155694000Y-77150174D01*
X155659925Y-77023007D01*
X155594099Y-76908993D01*
X155520106Y-76835000D01*
X155575000Y-76835000D01*
X156702000Y-76835000D01*
X156702000Y-76167420D01*
X156701999Y-76167418D01*
X156695493Y-76106902D01*
X156644446Y-75970038D01*
X156556903Y-75853096D01*
X156439961Y-75765554D01*
X156439961Y-75765553D01*
X156303097Y-75714506D01*
X156242581Y-75708000D01*
X155575000Y-75708000D01*
X155575000Y-76835000D01*
X155520106Y-76835000D01*
X155501007Y-76815901D01*
X155386993Y-76750075D01*
X155259826Y-76716000D01*
X155128174Y-76716000D01*
X155001007Y-76750075D01*
X154886993Y-76815901D01*
X154813000Y-76889894D01*
X154813000Y-75708000D01*
X154145418Y-75708000D01*
X154084902Y-75714506D01*
X153948038Y-75765553D01*
X153948038Y-75765554D01*
X153831096Y-75853096D01*
X153738239Y-75977138D01*
X153736533Y-75975861D01*
X153695578Y-76016807D01*
X153627303Y-76031651D01*
X153561842Y-76007226D01*
X153555641Y-76002265D01*
X153543416Y-75991824D01*
X153543414Y-75991822D01*
X153543412Y-75991821D01*
X153543410Y-75991820D01*
X153340962Y-75867759D01*
X153340959Y-75867757D01*
X153121596Y-75776895D01*
X152890714Y-75721465D01*
X152654000Y-75702835D01*
X152417285Y-75721465D01*
X152186404Y-75776895D01*
X152186402Y-75776895D01*
X151967040Y-75867757D01*
X151967037Y-75867759D01*
X151764589Y-75991820D01*
X151764586Y-75991821D01*
X151584031Y-76146031D01*
X151467021Y-76283032D01*
X151408514Y-76321225D01*
X151372731Y-76326500D01*
X134631269Y-76326500D01*
X134564230Y-76306815D01*
X134536979Y-76283032D01*
X134520993Y-76264316D01*
X134419969Y-76146031D01*
X134285084Y-76030828D01*
X134239413Y-75991821D01*
X134239410Y-75991820D01*
X134036962Y-75867759D01*
X134036959Y-75867757D01*
X133817596Y-75776895D01*
X133586714Y-75721465D01*
X133350000Y-75702835D01*
X133113285Y-75721465D01*
X132882404Y-75776895D01*
X132882402Y-75776895D01*
X132663040Y-75867757D01*
X132663037Y-75867759D01*
X132460586Y-75991821D01*
X132460575Y-75991829D01*
X132448364Y-76002259D01*
X132384602Y-76030828D01*
X132315517Y-76020389D01*
X132266062Y-75976912D01*
X132265761Y-75977138D01*
X132264686Y-75975702D01*
X132263042Y-75974257D01*
X132260973Y-75970742D01*
X132172903Y-75853096D01*
X132055961Y-75765554D01*
X132055961Y-75765553D01*
X131919097Y-75714506D01*
X131858581Y-75708000D01*
X131191000Y-75708000D01*
X131191000Y-76889894D01*
X131117007Y-76815901D01*
X131002993Y-76750075D01*
X130875826Y-76716000D01*
X130744174Y-76716000D01*
X130617007Y-76750075D01*
X130502993Y-76815901D01*
X130409901Y-76908993D01*
X130344075Y-77023007D01*
X130310000Y-77150174D01*
X130310000Y-77281826D01*
X130344075Y-77408993D01*
X130409901Y-77523007D01*
X130502993Y-77616099D01*
X130617007Y-77681925D01*
X130744174Y-77716000D01*
X130875826Y-77716000D01*
X131002993Y-77681925D01*
X131117007Y-77616099D01*
X131191000Y-77542106D01*
X131191000Y-78724000D01*
X131858580Y-78724000D01*
X131858581Y-78723999D01*
X131919097Y-78717493D01*
X132055961Y-78666446D01*
X132055961Y-78666445D01*
X132172903Y-78578903D01*
X132265761Y-78454862D01*
X132267469Y-78456140D01*
X132308396Y-78415205D01*
X132376667Y-78400346D01*
X132442134Y-78424756D01*
X132448358Y-78429734D01*
X132460584Y-78440176D01*
X132460586Y-78440177D01*
X132460589Y-78440179D01*
X132663037Y-78564240D01*
X132663040Y-78564242D01*
X132882403Y-78655104D01*
X132882404Y-78655104D01*
X132882406Y-78655105D01*
X133113289Y-78710535D01*
X133350000Y-78729165D01*
X133586711Y-78710535D01*
X133817594Y-78655105D01*
X133817596Y-78655104D01*
X133817597Y-78655104D01*
X134036959Y-78564242D01*
X134036960Y-78564241D01*
X134036963Y-78564240D01*
X134239416Y-78440176D01*
X134419969Y-78285969D01*
X134536979Y-78148968D01*
X134595486Y-78110775D01*
X134631269Y-78105500D01*
X151372731Y-78105500D01*
X151439770Y-78125185D01*
X151467021Y-78148968D01*
X151584033Y-78285971D01*
X151721031Y-78402978D01*
X151759225Y-78461484D01*
X151764500Y-78497268D01*
X151764500Y-78573612D01*
X151798681Y-78745450D01*
X151798684Y-78745462D01*
X151865731Y-78907329D01*
X151865738Y-78907342D01*
X151963079Y-79053022D01*
X151963082Y-79053026D01*
X153102973Y-80192917D01*
X153102977Y-80192920D01*
X153248657Y-80290261D01*
X153248670Y-80290268D01*
X153410537Y-80357315D01*
X153410542Y-80357317D01*
X153582387Y-80391499D01*
X153582391Y-80391500D01*
X153582392Y-80391500D01*
X153757608Y-80391500D01*
X154520195Y-80391500D01*
X154587234Y-80411185D01*
X154607876Y-80427819D01*
X161615080Y-87435023D01*
X161738977Y-87558920D01*
X161834220Y-87622559D01*
X161853002Y-87637973D01*
X161919845Y-87704816D01*
X162067087Y-87793827D01*
X162231351Y-87845013D01*
X162302735Y-87851500D01*
X162817264Y-87851499D01*
X162817272Y-87851499D01*
X162888645Y-87845014D01*
X162888648Y-87845013D01*
X162888649Y-87845013D01*
X163052913Y-87793827D01*
X163200155Y-87704816D01*
X163200806Y-87704165D01*
X163297319Y-87607653D01*
X163358642Y-87574168D01*
X163428334Y-87579152D01*
X163472681Y-87607653D01*
X163569841Y-87704813D01*
X163569843Y-87704814D01*
X163569845Y-87704816D01*
X163717087Y-87793827D01*
X163881351Y-87845013D01*
X163952735Y-87851500D01*
X164467264Y-87851499D01*
X164467272Y-87851499D01*
X164538645Y-87845014D01*
X164538648Y-87845013D01*
X164538649Y-87845013D01*
X164702913Y-87793827D01*
X164714995Y-87786522D01*
X164733424Y-87775383D01*
X164797573Y-87757500D01*
X169693459Y-87757500D01*
X169760498Y-87777185D01*
X169781140Y-87793819D01*
X169851828Y-87864507D01*
X169851834Y-87864512D01*
X170037570Y-87994566D01*
X170037572Y-87994567D01*
X170037575Y-87994569D01*
X170104160Y-88025618D01*
X170156599Y-88071790D01*
X170175751Y-88138984D01*
X170155535Y-88205865D01*
X170104160Y-88250382D01*
X170037574Y-88281431D01*
X170037570Y-88281433D01*
X169851834Y-88411487D01*
X169851828Y-88411492D01*
X169781140Y-88482181D01*
X169719817Y-88515666D01*
X169693459Y-88518500D01*
X166921387Y-88518500D01*
X166749549Y-88552681D01*
X166749537Y-88552684D01*
X166587670Y-88619731D01*
X166587657Y-88619738D01*
X166441977Y-88717079D01*
X166441973Y-88717082D01*
X165138874Y-90020181D01*
X165077551Y-90053666D01*
X165051193Y-90056500D01*
X164613962Y-90056500D01*
X164613946Y-90056501D01*
X164510072Y-90067113D01*
X164341764Y-90122884D01*
X164341759Y-90122886D01*
X164190846Y-90215971D01*
X164065471Y-90341346D01*
X163972386Y-90492259D01*
X163972384Y-90492264D01*
X163916613Y-90660572D01*
X163906000Y-90764447D01*
X163906000Y-92115537D01*
X163906001Y-92115553D01*
X163916613Y-92219427D01*
X163972384Y-92387735D01*
X163972386Y-92387740D01*
X163975579Y-92392917D01*
X164065470Y-92538652D01*
X164190848Y-92664030D01*
X164341762Y-92757115D01*
X164510074Y-92812887D01*
X164613955Y-92823500D01*
X165340044Y-92823499D01*
X165443926Y-92812887D01*
X165612238Y-92757115D01*
X165763152Y-92664030D01*
X165888530Y-92538652D01*
X165981615Y-92387738D01*
X166037387Y-92219426D01*
X166048000Y-92115545D01*
X166047999Y-91678303D01*
X166067683Y-91611265D01*
X166084313Y-91590628D01*
X167341124Y-90333819D01*
X167402447Y-90300334D01*
X167428805Y-90297500D01*
X169693459Y-90297500D01*
X169760498Y-90317185D01*
X169781140Y-90333819D01*
X169851828Y-90404507D01*
X169851834Y-90404512D01*
X170037570Y-90534566D01*
X170037572Y-90534567D01*
X170037575Y-90534569D01*
X170104160Y-90565618D01*
X170156599Y-90611790D01*
X170175751Y-90678984D01*
X170155535Y-90745865D01*
X170104160Y-90790382D01*
X170037574Y-90821431D01*
X170037570Y-90821433D01*
X169851834Y-90951487D01*
X169851828Y-90951492D01*
X169781140Y-91022181D01*
X169719817Y-91055666D01*
X169693459Y-91058500D01*
X168186387Y-91058500D01*
X168014549Y-91092681D01*
X168014537Y-91092684D01*
X167852670Y-91159731D01*
X167852657Y-91159738D01*
X167706977Y-91257079D01*
X167706973Y-91257082D01*
X163965585Y-94998470D01*
X163904262Y-95031955D01*
X163889131Y-95034279D01*
X163881351Y-95034987D01*
X163771841Y-95069111D01*
X163717086Y-95086173D01*
X163569841Y-95175186D01*
X163569840Y-95175187D01*
X163472681Y-95272347D01*
X163411358Y-95305832D01*
X163341666Y-95300848D01*
X163297319Y-95272347D01*
X163200158Y-95175186D01*
X163169550Y-95156683D01*
X163052913Y-95086173D01*
X162888649Y-95034987D01*
X162888647Y-95034986D01*
X162888645Y-95034986D01*
X162836159Y-95030217D01*
X162817265Y-95028500D01*
X162817262Y-95028500D01*
X162302727Y-95028500D01*
X162231354Y-95034985D01*
X162231344Y-95034988D01*
X162067089Y-95086171D01*
X162067085Y-95086173D01*
X162036576Y-95104617D01*
X161972427Y-95122500D01*
X158408387Y-95122500D01*
X158236549Y-95156681D01*
X158236537Y-95156684D01*
X158074670Y-95223731D01*
X158074657Y-95223738D01*
X157928977Y-95321079D01*
X157928973Y-95321082D01*
X153502873Y-99747184D01*
X152086977Y-101163080D01*
X152055421Y-101194636D01*
X151963078Y-101286978D01*
X151865738Y-101432657D01*
X151865731Y-101432670D01*
X151798684Y-101594537D01*
X151798681Y-101594549D01*
X151764500Y-101766387D01*
X151764500Y-102858730D01*
X151744815Y-102925769D01*
X151721032Y-102953020D01*
X151584031Y-103070031D01*
X151467021Y-103207032D01*
X151408514Y-103245225D01*
X151372731Y-103250500D01*
X134631269Y-103250500D01*
X134564230Y-103230815D01*
X134536979Y-103207032D01*
X134495788Y-103158804D01*
X134419969Y-103070031D01*
X134282967Y-102953020D01*
X134239413Y-102915821D01*
X134239410Y-102915820D01*
X134036962Y-102791759D01*
X134036959Y-102791757D01*
X133817596Y-102700895D01*
X133586714Y-102645465D01*
X133350000Y-102626835D01*
X133113285Y-102645465D01*
X132882404Y-102700895D01*
X132882402Y-102700895D01*
X132663040Y-102791757D01*
X132663037Y-102791759D01*
X132460586Y-102915821D01*
X132460575Y-102915829D01*
X132448364Y-102926259D01*
X132384602Y-102954828D01*
X132315517Y-102944389D01*
X132266062Y-102900912D01*
X132265761Y-102901138D01*
X132264686Y-102899702D01*
X132263042Y-102898257D01*
X132260973Y-102894742D01*
X132172903Y-102777096D01*
X132055961Y-102689554D01*
X132055961Y-102689553D01*
X131919097Y-102638506D01*
X131858581Y-102632000D01*
X131191000Y-102632000D01*
X131191000Y-103813894D01*
X131117007Y-103739901D01*
X131002993Y-103674075D01*
X130875826Y-103640000D01*
X130744174Y-103640000D01*
X130617007Y-103674075D01*
X130502993Y-103739901D01*
X130409901Y-103832993D01*
X130344075Y-103947007D01*
X130310000Y-104074174D01*
X130310000Y-104205826D01*
X130344075Y-104332993D01*
X130409901Y-104447007D01*
X130502993Y-104540099D01*
X130617007Y-104605925D01*
X130744174Y-104640000D01*
X130875826Y-104640000D01*
X131002993Y-104605925D01*
X131117007Y-104540099D01*
X131191000Y-104466106D01*
X131191000Y-105648000D01*
X131858580Y-105648000D01*
X131858581Y-105647999D01*
X131919097Y-105641493D01*
X132055961Y-105590446D01*
X132055961Y-105590445D01*
X132172903Y-105502903D01*
X132265761Y-105378862D01*
X132267469Y-105380140D01*
X132308396Y-105339205D01*
X132376667Y-105324346D01*
X132442134Y-105348756D01*
X132448358Y-105353734D01*
X132460584Y-105364176D01*
X132460586Y-105364177D01*
X132460589Y-105364179D01*
X132663037Y-105488240D01*
X132663040Y-105488242D01*
X132882403Y-105579104D01*
X132882404Y-105579104D01*
X132882406Y-105579105D01*
X133113289Y-105634535D01*
X133350000Y-105653165D01*
X133586711Y-105634535D01*
X133817594Y-105579105D01*
X133817596Y-105579104D01*
X133817597Y-105579104D01*
X134036959Y-105488242D01*
X134036960Y-105488241D01*
X134036963Y-105488240D01*
X134239416Y-105364176D01*
X134419969Y-105209969D01*
X134536979Y-105072968D01*
X134595486Y-105034775D01*
X134631269Y-105029500D01*
X151372731Y-105029500D01*
X151439770Y-105049185D01*
X151467021Y-105072968D01*
X151584031Y-105209969D01*
X151717949Y-105324346D01*
X151764586Y-105364178D01*
X151764589Y-105364179D01*
X151967037Y-105488240D01*
X151967040Y-105488242D01*
X152186403Y-105579104D01*
X152186404Y-105579104D01*
X152186406Y-105579105D01*
X152417289Y-105634535D01*
X152654000Y-105653165D01*
X152890711Y-105634535D01*
X153121594Y-105579105D01*
X153121596Y-105579104D01*
X153121597Y-105579104D01*
X153340959Y-105488242D01*
X153340960Y-105488241D01*
X153340963Y-105488240D01*
X153543416Y-105364176D01*
X153555632Y-105353741D01*
X153619388Y-105325171D01*
X153688475Y-105335605D01*
X153737940Y-105379085D01*
X153738239Y-105378862D01*
X153739303Y-105380284D01*
X153740953Y-105381734D01*
X153743027Y-105385258D01*
X153831096Y-105502903D01*
X153948038Y-105590445D01*
X153948038Y-105590446D01*
X154084902Y-105641493D01*
X154145418Y-105647999D01*
X154145420Y-105648000D01*
X154813000Y-105648000D01*
X155575000Y-105648000D01*
X156242580Y-105648000D01*
X156242581Y-105647999D01*
X156303097Y-105641493D01*
X156439961Y-105590446D01*
X156439961Y-105590445D01*
X156556903Y-105502903D01*
X156644445Y-105385961D01*
X156644446Y-105385961D01*
X156695493Y-105249097D01*
X156701999Y-105188581D01*
X156702000Y-105188580D01*
X156702000Y-104521000D01*
X155575000Y-104521000D01*
X155575000Y-105648000D01*
X154813000Y-105648000D01*
X154813000Y-104466106D01*
X154886993Y-104540099D01*
X155001007Y-104605925D01*
X155128174Y-104640000D01*
X155259826Y-104640000D01*
X155386993Y-104605925D01*
X155501007Y-104540099D01*
X155594099Y-104447007D01*
X155659925Y-104332993D01*
X155694000Y-104205826D01*
X155694000Y-104074174D01*
X155659925Y-103947007D01*
X155594099Y-103832993D01*
X155520106Y-103759000D01*
X155575000Y-103759000D01*
X156702000Y-103759000D01*
X156702000Y-103091420D01*
X156701999Y-103091418D01*
X156695493Y-103030902D01*
X156644446Y-102894038D01*
X156556903Y-102777096D01*
X156439961Y-102689554D01*
X156439961Y-102689553D01*
X156303097Y-102638506D01*
X156242581Y-102632000D01*
X155575000Y-102632000D01*
X155575000Y-103759000D01*
X155520106Y-103759000D01*
X155501007Y-103739901D01*
X155386993Y-103674075D01*
X155259826Y-103640000D01*
X155128174Y-103640000D01*
X155001007Y-103674075D01*
X154886993Y-103739901D01*
X154813000Y-103813894D01*
X154813000Y-102632000D01*
X154145418Y-102632000D01*
X154084902Y-102638506D01*
X153948038Y-102689553D01*
X153948038Y-102689554D01*
X153831096Y-102777096D01*
X153766767Y-102863029D01*
X153710833Y-102904900D01*
X153641141Y-102909884D01*
X153579818Y-102876399D01*
X153546334Y-102815075D01*
X153543500Y-102788718D01*
X153543500Y-102273805D01*
X153563185Y-102206766D01*
X153579819Y-102186124D01*
X158828124Y-96937819D01*
X158889447Y-96904334D01*
X158915805Y-96901500D01*
X161972427Y-96901500D01*
X162036576Y-96919383D01*
X162059881Y-96933471D01*
X162067087Y-96937827D01*
X162231351Y-96989013D01*
X162302735Y-96995500D01*
X162817264Y-96995499D01*
X162817272Y-96995499D01*
X162888645Y-96989014D01*
X162888648Y-96989013D01*
X162888649Y-96989013D01*
X163052913Y-96937827D01*
X163200155Y-96848816D01*
X163246867Y-96802104D01*
X163297319Y-96751653D01*
X163358642Y-96718168D01*
X163428334Y-96723152D01*
X163472681Y-96751653D01*
X163569841Y-96848813D01*
X163569843Y-96848814D01*
X163569845Y-96848816D01*
X163717087Y-96937827D01*
X163881351Y-96989013D01*
X163952735Y-96995500D01*
X164467264Y-96995499D01*
X164467272Y-96995499D01*
X164538645Y-96989014D01*
X164538648Y-96989013D01*
X164538649Y-96989013D01*
X164702913Y-96937827D01*
X164850155Y-96848816D01*
X164971816Y-96727155D01*
X165060827Y-96579913D01*
X165112013Y-96415649D01*
X165112719Y-96407873D01*
X165138388Y-96342891D01*
X165148522Y-96331419D01*
X168606124Y-92873819D01*
X168667447Y-92840334D01*
X168693805Y-92837500D01*
X169693459Y-92837500D01*
X169760498Y-92857185D01*
X169781140Y-92873819D01*
X169851828Y-92944507D01*
X169851834Y-92944512D01*
X170037570Y-93074566D01*
X170037572Y-93074567D01*
X170037575Y-93074569D01*
X170104160Y-93105618D01*
X170156599Y-93151790D01*
X170175751Y-93218984D01*
X170155535Y-93285865D01*
X170104160Y-93330382D01*
X170037574Y-93361431D01*
X170037570Y-93361433D01*
X169851834Y-93491487D01*
X169851828Y-93491492D01*
X169691492Y-93651828D01*
X169691487Y-93651834D01*
X169561433Y-93837570D01*
X169561431Y-93837574D01*
X169465602Y-94043081D01*
X169465598Y-94043090D01*
X169406914Y-94262104D01*
X169406912Y-94262114D01*
X169386969Y-94490060D01*
X169361516Y-94555129D01*
X169351122Y-94566933D01*
X164353874Y-99564181D01*
X164292551Y-99597666D01*
X164266193Y-99600500D01*
X163952727Y-99600500D01*
X163881354Y-99606985D01*
X163881344Y-99606988D01*
X163717090Y-99658171D01*
X163569841Y-99747186D01*
X163569840Y-99747187D01*
X163472681Y-99844347D01*
X163411358Y-99877832D01*
X163341666Y-99872848D01*
X163297319Y-99844347D01*
X163200158Y-99747186D01*
X163052913Y-99658173D01*
X162988890Y-99638223D01*
X162888649Y-99606987D01*
X162888647Y-99606986D01*
X162888645Y-99606986D01*
X162838667Y-99602444D01*
X162817265Y-99600500D01*
X162817262Y-99600500D01*
X162302727Y-99600500D01*
X162231354Y-99606985D01*
X162231344Y-99606988D01*
X162067090Y-99658171D01*
X161919841Y-99747186D01*
X161798186Y-99868841D01*
X161709173Y-100016086D01*
X161709173Y-100016087D01*
X161657987Y-100180351D01*
X161657987Y-100180353D01*
X161657280Y-100188131D01*
X161631606Y-100253113D01*
X161621470Y-100264585D01*
X159196504Y-102689553D01*
X158436977Y-103449080D01*
X158375027Y-103511029D01*
X158313078Y-103572978D01*
X158215738Y-103718657D01*
X158215731Y-103718670D01*
X158148684Y-103880537D01*
X158148681Y-103880549D01*
X158114500Y-104052387D01*
X158114500Y-106006195D01*
X158094815Y-106073234D01*
X158078181Y-106093876D01*
X154861876Y-109310181D01*
X154800553Y-109343666D01*
X154774195Y-109346500D01*
X153836388Y-109346500D01*
X153664549Y-109380681D01*
X153664537Y-109380684D01*
X153502670Y-109447731D01*
X153502657Y-109447738D01*
X153356977Y-109545079D01*
X153356973Y-109545082D01*
X152244728Y-110657329D01*
X152086977Y-110815080D01*
X152025027Y-110877029D01*
X151963078Y-110938978D01*
X151865738Y-111084657D01*
X151865731Y-111084670D01*
X151798684Y-111246537D01*
X151798681Y-111246549D01*
X151764500Y-111418387D01*
X151764500Y-111494730D01*
X151744815Y-111561769D01*
X151721032Y-111589020D01*
X151584031Y-111706031D01*
X151467021Y-111843032D01*
X151408514Y-111881225D01*
X151372731Y-111886500D01*
X134631269Y-111886500D01*
X134564230Y-111866815D01*
X134536979Y-111843032D01*
X134520993Y-111824316D01*
X134419969Y-111706031D01*
X134282967Y-111589020D01*
X134239413Y-111551821D01*
X134239410Y-111551820D01*
X134036962Y-111427759D01*
X134036959Y-111427757D01*
X133817596Y-111336895D01*
X133586714Y-111281465D01*
X133350000Y-111262835D01*
X133113285Y-111281465D01*
X132882404Y-111336895D01*
X132882402Y-111336895D01*
X132663040Y-111427757D01*
X132663037Y-111427759D01*
X132460586Y-111551821D01*
X132460575Y-111551829D01*
X132448364Y-111562259D01*
X132384602Y-111590828D01*
X132315517Y-111580389D01*
X132266062Y-111536912D01*
X132265761Y-111537138D01*
X132264686Y-111535702D01*
X132263042Y-111534257D01*
X132260973Y-111530742D01*
X132172903Y-111413096D01*
X132055961Y-111325554D01*
X132055961Y-111325553D01*
X131919097Y-111274506D01*
X131858581Y-111268000D01*
X131191000Y-111268000D01*
X131191000Y-112449894D01*
X131117007Y-112375901D01*
X131002993Y-112310075D01*
X130875826Y-112276000D01*
X130744174Y-112276000D01*
X130617007Y-112310075D01*
X130502993Y-112375901D01*
X130409901Y-112468993D01*
X130344075Y-112583007D01*
X130310000Y-112710174D01*
X130310000Y-112841826D01*
X130344075Y-112968993D01*
X130409901Y-113083007D01*
X130502993Y-113176099D01*
X130617007Y-113241925D01*
X130744174Y-113276000D01*
X130875826Y-113276000D01*
X131002993Y-113241925D01*
X131117007Y-113176099D01*
X131191000Y-113102106D01*
X131191000Y-114284000D01*
X131858580Y-114284000D01*
X131858581Y-114283999D01*
X131919097Y-114277493D01*
X132055961Y-114226446D01*
X132055961Y-114226445D01*
X132172903Y-114138903D01*
X132265761Y-114014862D01*
X132267469Y-114016140D01*
X132308396Y-113975205D01*
X132376667Y-113960346D01*
X132442134Y-113984756D01*
X132448358Y-113989734D01*
X132460584Y-114000176D01*
X132460586Y-114000177D01*
X132460589Y-114000179D01*
X132663037Y-114124240D01*
X132663040Y-114124242D01*
X132882403Y-114215104D01*
X132882404Y-114215104D01*
X132882406Y-114215105D01*
X133113289Y-114270535D01*
X133350000Y-114289165D01*
X133586711Y-114270535D01*
X133817594Y-114215105D01*
X133817596Y-114215104D01*
X133817597Y-114215104D01*
X134036959Y-114124242D01*
X134036960Y-114124241D01*
X134036963Y-114124240D01*
X134239416Y-114000176D01*
X134419969Y-113845969D01*
X134536979Y-113708968D01*
X134595486Y-113670775D01*
X134631269Y-113665500D01*
X151372731Y-113665500D01*
X151439770Y-113685185D01*
X151467021Y-113708968D01*
X151584031Y-113845969D01*
X151717949Y-113960346D01*
X151764586Y-114000178D01*
X151764589Y-114000179D01*
X151967037Y-114124240D01*
X151967040Y-114124242D01*
X152186403Y-114215104D01*
X152186404Y-114215104D01*
X152186406Y-114215105D01*
X152417289Y-114270535D01*
X152654000Y-114289165D01*
X152890711Y-114270535D01*
X153121594Y-114215105D01*
X153121596Y-114215104D01*
X153121597Y-114215104D01*
X153340959Y-114124242D01*
X153340960Y-114124241D01*
X153340963Y-114124240D01*
X153543416Y-114000176D01*
X153555632Y-113989741D01*
X153619388Y-113961171D01*
X153688475Y-113971605D01*
X153737940Y-114015085D01*
X153738239Y-114014862D01*
X153739303Y-114016284D01*
X153740953Y-114017734D01*
X153743027Y-114021258D01*
X153831096Y-114138903D01*
X153948038Y-114226445D01*
X153948038Y-114226446D01*
X154084902Y-114277493D01*
X154145418Y-114283999D01*
X154145420Y-114284000D01*
X154813000Y-114284000D01*
X155575000Y-114284000D01*
X156242580Y-114284000D01*
X156242581Y-114283999D01*
X156303097Y-114277493D01*
X156439961Y-114226446D01*
X156439962Y-114226445D01*
X156498469Y-114182647D01*
X156563933Y-114158229D01*
X156576794Y-114161026D01*
X156591081Y-114095354D01*
X156600647Y-114080469D01*
X156644445Y-114021962D01*
X156644446Y-114021961D01*
X156695493Y-113885097D01*
X156701999Y-113824581D01*
X156702000Y-113824580D01*
X156702000Y-113157000D01*
X155575000Y-113157000D01*
X155575000Y-114284000D01*
X154813000Y-114284000D01*
X154813000Y-113102106D01*
X154886993Y-113176099D01*
X155001007Y-113241925D01*
X155128174Y-113276000D01*
X155259826Y-113276000D01*
X155386993Y-113241925D01*
X155501007Y-113176099D01*
X155594099Y-113083007D01*
X155659925Y-112968993D01*
X155694000Y-112841826D01*
X155694000Y-112710174D01*
X155659925Y-112583007D01*
X155594099Y-112468993D01*
X155520106Y-112395000D01*
X156702000Y-112395000D01*
X156702000Y-111727420D01*
X156701999Y-111727418D01*
X156695493Y-111666902D01*
X156644446Y-111530038D01*
X156556903Y-111413096D01*
X156439961Y-111325554D01*
X156439961Y-111325553D01*
X156303097Y-111274506D01*
X156242581Y-111268000D01*
X155650298Y-111268000D01*
X155583259Y-111248315D01*
X155537504Y-111195511D01*
X155527560Y-111126353D01*
X155556585Y-111062797D01*
X155602846Y-111029439D01*
X155615329Y-111024268D01*
X155615329Y-111024267D01*
X155615336Y-111024265D01*
X155761023Y-110926920D01*
X159694920Y-106993023D01*
X159792265Y-106847336D01*
X159859317Y-106685458D01*
X159893500Y-106513608D01*
X159893500Y-106338391D01*
X159893500Y-104559804D01*
X159913185Y-104492765D01*
X159929814Y-104472128D01*
X162804413Y-101597528D01*
X162865734Y-101564045D01*
X162880869Y-101561719D01*
X162888649Y-101561013D01*
X162888651Y-101561012D01*
X162888653Y-101561012D01*
X163052910Y-101509828D01*
X163052910Y-101509827D01*
X163052913Y-101509827D01*
X163200155Y-101420816D01*
X163248706Y-101372265D01*
X163297319Y-101323653D01*
X163358642Y-101290168D01*
X163428334Y-101295152D01*
X163472681Y-101323653D01*
X163569841Y-101420813D01*
X163569843Y-101420814D01*
X163569845Y-101420816D01*
X163717087Y-101509827D01*
X163881351Y-101561013D01*
X163952735Y-101567500D01*
X164467264Y-101567499D01*
X164467272Y-101567499D01*
X164538645Y-101561014D01*
X164538649Y-101561013D01*
X164538652Y-101561012D01*
X164578968Y-101548448D01*
X164648829Y-101547297D01*
X164708221Y-101584097D01*
X164738290Y-101647166D01*
X164729488Y-101716479D01*
X164703541Y-101754515D01*
X164409977Y-102048080D01*
X164348027Y-102110029D01*
X164286078Y-102171978D01*
X164188738Y-102317657D01*
X164188731Y-102317670D01*
X164121684Y-102479537D01*
X164121681Y-102479549D01*
X164087500Y-102651387D01*
X164087500Y-104494465D01*
X164069039Y-104559562D01*
X163972386Y-104716259D01*
X163972384Y-104716264D01*
X163916613Y-104884572D01*
X163906000Y-104988447D01*
X163906000Y-106339537D01*
X163906001Y-106339553D01*
X163916613Y-106443427D01*
X163939869Y-106513609D01*
X163972385Y-106611738D01*
X164065470Y-106762652D01*
X164190848Y-106888030D01*
X164341762Y-106981115D01*
X164510074Y-107036887D01*
X164613955Y-107047500D01*
X165340044Y-107047499D01*
X165443926Y-107036887D01*
X165612238Y-106981115D01*
X165763152Y-106888030D01*
X165888530Y-106762652D01*
X165981615Y-106611738D01*
X166037387Y-106443426D01*
X166048000Y-106339545D01*
X166047999Y-104988456D01*
X166037387Y-104884574D01*
X165981615Y-104716262D01*
X165888530Y-104565348D01*
X165888529Y-104565347D01*
X165884961Y-104559562D01*
X165866500Y-104494465D01*
X165866500Y-103158804D01*
X165886185Y-103091765D01*
X165902814Y-103071128D01*
X169180919Y-99793022D01*
X169242242Y-99759538D01*
X169311934Y-99764522D01*
X169367867Y-99806394D01*
X169392284Y-99871858D01*
X169392600Y-99880704D01*
X169392600Y-100403981D01*
X169399106Y-100464497D01*
X169450153Y-100601361D01*
X169537696Y-100718303D01*
X169654638Y-100805845D01*
X169654638Y-100805846D01*
X169791502Y-100856893D01*
X169852018Y-100863399D01*
X169852020Y-100863400D01*
X170307000Y-100863400D01*
X171069000Y-100863400D01*
X171523980Y-100863400D01*
X171523981Y-100863399D01*
X171584497Y-100856893D01*
X171721361Y-100805846D01*
X171721361Y-100805845D01*
X171838303Y-100718303D01*
X171925845Y-100601361D01*
X171925846Y-100601361D01*
X171976893Y-100464497D01*
X171983399Y-100403981D01*
X171983400Y-100403980D01*
X171983400Y-99949000D01*
X171069000Y-99949000D01*
X171069000Y-100863400D01*
X170307000Y-100863400D01*
X170307000Y-99941341D01*
X170360485Y-99994826D01*
X170482115Y-100065050D01*
X170617777Y-100101400D01*
X170758223Y-100101400D01*
X170893885Y-100065050D01*
X171015515Y-99994826D01*
X171114826Y-99895515D01*
X171185050Y-99773885D01*
X171221400Y-99638223D01*
X171221400Y-99497777D01*
X171185050Y-99362115D01*
X171114826Y-99240485D01*
X171061341Y-99187000D01*
X171983400Y-99187000D01*
X171983400Y-98732020D01*
X171983399Y-98732018D01*
X171976893Y-98671502D01*
X171925846Y-98534638D01*
X171838303Y-98417696D01*
X171721361Y-98330154D01*
X171721361Y-98330153D01*
X171584495Y-98279105D01*
X171584491Y-98279104D01*
X171545554Y-98274918D01*
X171481003Y-98248180D01*
X171441155Y-98190787D01*
X171438662Y-98120962D01*
X171474315Y-98060873D01*
X171487679Y-98050060D01*
X171524170Y-98024509D01*
X171684509Y-97864170D01*
X171814569Y-97678425D01*
X171910399Y-97472917D01*
X171969087Y-97253890D01*
X171988850Y-97028000D01*
X171969087Y-96802110D01*
X171910399Y-96583083D01*
X171814569Y-96377575D01*
X171814567Y-96377572D01*
X171814566Y-96377570D01*
X171684512Y-96191834D01*
X171684507Y-96191828D01*
X171524171Y-96031492D01*
X171524165Y-96031487D01*
X171338429Y-95901433D01*
X171338421Y-95901429D01*
X171271840Y-95870382D01*
X171219400Y-95824210D01*
X171200248Y-95757017D01*
X171220463Y-95690135D01*
X171271840Y-95645618D01*
X171338425Y-95614569D01*
X171524170Y-95484509D01*
X171684509Y-95324170D01*
X171814569Y-95138425D01*
X171910399Y-94932917D01*
X171969087Y-94713890D01*
X171988850Y-94488000D01*
X171969087Y-94262110D01*
X171910399Y-94043083D01*
X171814569Y-93837575D01*
X171814567Y-93837572D01*
X171814566Y-93837570D01*
X171684512Y-93651834D01*
X171684507Y-93651828D01*
X171524171Y-93491492D01*
X171524165Y-93491487D01*
X171338429Y-93361433D01*
X171338421Y-93361429D01*
X171271840Y-93330382D01*
X171219400Y-93284210D01*
X171200248Y-93217017D01*
X171220463Y-93150135D01*
X171271840Y-93105618D01*
X171338425Y-93074569D01*
X171524170Y-92944509D01*
X171684509Y-92784170D01*
X171814569Y-92598425D01*
X171910399Y-92392917D01*
X171969087Y-92173890D01*
X171988850Y-91948000D01*
X171969087Y-91722110D01*
X171910399Y-91503083D01*
X171814569Y-91297575D01*
X171814567Y-91297572D01*
X171814566Y-91297570D01*
X171684512Y-91111834D01*
X171684507Y-91111828D01*
X171524171Y-90951492D01*
X171524165Y-90951487D01*
X171338429Y-90821433D01*
X171338421Y-90821429D01*
X171271840Y-90790382D01*
X171219400Y-90744210D01*
X171200248Y-90677017D01*
X171220463Y-90610135D01*
X171271840Y-90565618D01*
X171338425Y-90534569D01*
X171524170Y-90404509D01*
X171684509Y-90244170D01*
X171814569Y-90058425D01*
X171910399Y-89852917D01*
X171969087Y-89633890D01*
X171988850Y-89408000D01*
X171969087Y-89182110D01*
X171910399Y-88963083D01*
X171814569Y-88757575D01*
X171814567Y-88757572D01*
X171814566Y-88757570D01*
X171684512Y-88571834D01*
X171684507Y-88571828D01*
X171524171Y-88411492D01*
X171524165Y-88411487D01*
X171338429Y-88281433D01*
X171338421Y-88281429D01*
X171271840Y-88250382D01*
X171219400Y-88204210D01*
X171200248Y-88137017D01*
X171220463Y-88070135D01*
X171271840Y-88025618D01*
X171338425Y-87994569D01*
X171524170Y-87864509D01*
X171684509Y-87704170D01*
X171814569Y-87518425D01*
X171910399Y-87312917D01*
X171969087Y-87093890D01*
X171988850Y-86868000D01*
X171969087Y-86642110D01*
X171910399Y-86423083D01*
X171814569Y-86217575D01*
X171814567Y-86217572D01*
X171814566Y-86217570D01*
X171684512Y-86031834D01*
X171684507Y-86031828D01*
X171524171Y-85871492D01*
X171524165Y-85871487D01*
X171338429Y-85741433D01*
X171338421Y-85741429D01*
X171271840Y-85710382D01*
X171219400Y-85664210D01*
X171200248Y-85597017D01*
X171220463Y-85530135D01*
X171271840Y-85485618D01*
X171338425Y-85454569D01*
X171524170Y-85324509D01*
X171684509Y-85164170D01*
X171814569Y-84978425D01*
X171910399Y-84772917D01*
X171969087Y-84553890D01*
X171988850Y-84328000D01*
X171969087Y-84102110D01*
X171924525Y-83935805D01*
X171910401Y-83883090D01*
X171910400Y-83883089D01*
X171910399Y-83883083D01*
X171814569Y-83677575D01*
X171814567Y-83677572D01*
X171814566Y-83677570D01*
X171684512Y-83491834D01*
X171684507Y-83491828D01*
X171524171Y-83331492D01*
X171524165Y-83331487D01*
X171338429Y-83201433D01*
X171338425Y-83201431D01*
X171132917Y-83105601D01*
X171132913Y-83105600D01*
X171132909Y-83105598D01*
X170913895Y-83046914D01*
X170913885Y-83046912D01*
X170688001Y-83027150D01*
X170687999Y-83027150D01*
X170462114Y-83046912D01*
X170462104Y-83046914D01*
X170243090Y-83105598D01*
X170243081Y-83105602D01*
X170037574Y-83201431D01*
X170037570Y-83201433D01*
X169851834Y-83331487D01*
X169851828Y-83331492D01*
X169781140Y-83402181D01*
X169719817Y-83435666D01*
X169693459Y-83438500D01*
X166535805Y-83438500D01*
X166468766Y-83418815D01*
X166448124Y-83402181D01*
X165022530Y-81976587D01*
X164989045Y-81915264D01*
X164986720Y-81900125D01*
X164986014Y-81892355D01*
X164986011Y-81892344D01*
X164934828Y-81728090D01*
X164934827Y-81728089D01*
X164934827Y-81728087D01*
X164845816Y-81580845D01*
X164845814Y-81580843D01*
X164845813Y-81580841D01*
X164724158Y-81459186D01*
X164685853Y-81436030D01*
X164576913Y-81370173D01*
X164412649Y-81318987D01*
X164412647Y-81318986D01*
X164412645Y-81318986D01*
X164362667Y-81314444D01*
X164341265Y-81312500D01*
X164341262Y-81312500D01*
X163826727Y-81312500D01*
X163755354Y-81318985D01*
X163755344Y-81318988D01*
X163591089Y-81370171D01*
X163591085Y-81370173D01*
X163511649Y-81418194D01*
X163444094Y-81436030D01*
X163377621Y-81414512D01*
X163333333Y-81360471D01*
X163323500Y-81312077D01*
X163323500Y-79542391D01*
X163323499Y-79542387D01*
X163289318Y-79370549D01*
X163289317Y-79370542D01*
X163289315Y-79370537D01*
X163222268Y-79208670D01*
X163222261Y-79208657D01*
X163124921Y-79062978D01*
X163114965Y-79053022D01*
X163001023Y-78939080D01*
X154361624Y-70299681D01*
X154328139Y-70238358D01*
X154333123Y-70168666D01*
X154374995Y-70112733D01*
X154440459Y-70088316D01*
X154449305Y-70088000D01*
X154813000Y-70088000D01*
X155575000Y-70088000D01*
X156242580Y-70088000D01*
X156242581Y-70087999D01*
X156303097Y-70081493D01*
X156439961Y-70030446D01*
X156439961Y-70030445D01*
X156556903Y-69942903D01*
X156644445Y-69825961D01*
X156644446Y-69825961D01*
X156695493Y-69689097D01*
X156701999Y-69628581D01*
X156702000Y-69628580D01*
X156702000Y-68961000D01*
X155575000Y-68961000D01*
X155575000Y-70088000D01*
X154813000Y-70088000D01*
X154813000Y-68906106D01*
X154886993Y-68980099D01*
X155001007Y-69045925D01*
X155128174Y-69080000D01*
X155259826Y-69080000D01*
X155386993Y-69045925D01*
X155501007Y-68980099D01*
X155594099Y-68887007D01*
X155659925Y-68772993D01*
X155694000Y-68645826D01*
X155694000Y-68514174D01*
X155659925Y-68387007D01*
X155594099Y-68272993D01*
X155520106Y-68199000D01*
X155575000Y-68199000D01*
X156702000Y-68199000D01*
X156702000Y-67531420D01*
X156701999Y-67531418D01*
X156695493Y-67470902D01*
X156644446Y-67334038D01*
X156556903Y-67217096D01*
X156439961Y-67129554D01*
X156439961Y-67129553D01*
X156303097Y-67078506D01*
X156242581Y-67072000D01*
X155575000Y-67072000D01*
X155575000Y-68199000D01*
X155520106Y-68199000D01*
X155501007Y-68179901D01*
X155386993Y-68114075D01*
X155259826Y-68080000D01*
X155128174Y-68080000D01*
X155001007Y-68114075D01*
X154886993Y-68179901D01*
X154813000Y-68253894D01*
X154813000Y-67072000D01*
X154145418Y-67072000D01*
X154084902Y-67078506D01*
X153948038Y-67129553D01*
X153948038Y-67129554D01*
X153831096Y-67217096D01*
X153738239Y-67341138D01*
X153736533Y-67339861D01*
X153695578Y-67380807D01*
X153627303Y-67395651D01*
X153561842Y-67371226D01*
X153555641Y-67366265D01*
X153543416Y-67355824D01*
X153543414Y-67355822D01*
X153543412Y-67355821D01*
X153543410Y-67355820D01*
X153340962Y-67231759D01*
X153340959Y-67231757D01*
X153121596Y-67140895D01*
X152890714Y-67085465D01*
X152654000Y-67066835D01*
X152417285Y-67085465D01*
X152186404Y-67140895D01*
X152186402Y-67140895D01*
X151967040Y-67231757D01*
X151967037Y-67231759D01*
X151764589Y-67355820D01*
X151764586Y-67355821D01*
X151584031Y-67510031D01*
X151467021Y-67647032D01*
X151408514Y-67685225D01*
X151372731Y-67690500D01*
X134631269Y-67690500D01*
X134564230Y-67670815D01*
X134536979Y-67647032D01*
X134520993Y-67628316D01*
X134419969Y-67510031D01*
X134285084Y-67394828D01*
X134239413Y-67355821D01*
X134239410Y-67355820D01*
X134036962Y-67231759D01*
X134036959Y-67231757D01*
X133817596Y-67140895D01*
X133586714Y-67085465D01*
X133350000Y-67066835D01*
X133113285Y-67085465D01*
X132882404Y-67140895D01*
X132882402Y-67140895D01*
X132663040Y-67231757D01*
X132663037Y-67231759D01*
X132460586Y-67355821D01*
X132460575Y-67355829D01*
X132448364Y-67366259D01*
X132384602Y-67394828D01*
X132315517Y-67384389D01*
X132266062Y-67340912D01*
X132265761Y-67341138D01*
X132264686Y-67339702D01*
X132263042Y-67338257D01*
X132260973Y-67334742D01*
X132172903Y-67217096D01*
X132055961Y-67129554D01*
X132055961Y-67129553D01*
X131919097Y-67078506D01*
X131858581Y-67072000D01*
X131191000Y-67072000D01*
X131191000Y-68253894D01*
X131117007Y-68179901D01*
X131002993Y-68114075D01*
X130875826Y-68080000D01*
X130744174Y-68080000D01*
X130617007Y-68114075D01*
X130502993Y-68179901D01*
X130409901Y-68272993D01*
X130344075Y-68387007D01*
X130310000Y-68514174D01*
X127500500Y-68514174D01*
X127500500Y-67531418D01*
X129302000Y-67531418D01*
X129302000Y-68199000D01*
X130429000Y-68199000D01*
X130429000Y-67072000D01*
X129761418Y-67072000D01*
X129700902Y-67078506D01*
X129564038Y-67129553D01*
X129564038Y-67129554D01*
X129447096Y-67217096D01*
X129359554Y-67334038D01*
X129359553Y-67334038D01*
X129308506Y-67470902D01*
X129302000Y-67531418D01*
X127500500Y-67531418D01*
X127500500Y-61584500D01*
X127520185Y-61517461D01*
X127572989Y-61471706D01*
X127624500Y-61460500D01*
X177175500Y-61460500D01*
X177242539Y-61480185D01*
G37*
%TD.AperFunction*%
%TD*%
M02*
