%TF.GenerationSoftware,KiCad,Pcbnew,8.0.2*%
%TF.CreationDate,2024-05-24T11:04:59-04:00*%
%TF.ProjectId,Traffic_Light_PCBv02,54726166-6669-4635-9f4c-696768745f50,v02*%
%TF.SameCoordinates,Original*%
%TF.FileFunction,Soldermask,Top*%
%TF.FilePolarity,Negative*%
%FSLAX46Y46*%
G04 Gerber Fmt 4.6, Leading zero omitted, Abs format (unit mm)*
G04 Created by KiCad (PCBNEW 8.0.2) date 2024-05-24 11:04:59*
%MOMM*%
%LPD*%
G01*
G04 APERTURE LIST*
G04 Aperture macros list*
%AMRoundRect*
0 Rectangle with rounded corners*
0 $1 Rounding radius*
0 $2 $3 $4 $5 $6 $7 $8 $9 X,Y pos of 4 corners*
0 Add a 4 corners polygon primitive as box body*
4,1,4,$2,$3,$4,$5,$6,$7,$8,$9,$2,$3,0*
0 Add four circle primitives for the rounded corners*
1,1,$1+$1,$2,$3*
1,1,$1+$1,$4,$5*
1,1,$1+$1,$6,$7*
1,1,$1+$1,$8,$9*
0 Add four rect primitives between the rounded corners*
20,1,$1+$1,$2,$3,$4,$5,0*
20,1,$1+$1,$4,$5,$6,$7,0*
20,1,$1+$1,$6,$7,$8,$9,0*
20,1,$1+$1,$8,$9,$2,$3,0*%
G04 Aperture macros list end*
%ADD10R,2.000000X2.000000*%
%ADD11C,2.000000*%
%ADD12RoundRect,0.200000X0.200000X0.275000X-0.200000X0.275000X-0.200000X-0.275000X0.200000X-0.275000X0*%
%ADD13RoundRect,0.250000X0.262500X0.450000X-0.262500X0.450000X-0.262500X-0.450000X0.262500X-0.450000X0*%
%ADD14R,1.574800X1.574800*%
%ADD15C,1.574800*%
G04 APERTURE END LIST*
D10*
%TO.C,D3*%
X119888000Y-83312000D03*
D11*
X122428000Y-83312000D03*
%TD*%
D12*
%TO.C,R2*%
X150431000Y-80518000D03*
X148781000Y-80518000D03*
%TD*%
D10*
%TO.C,D5*%
X143510000Y-75722000D03*
D11*
X140970000Y-75722000D03*
%TD*%
D10*
%TO.C,D6*%
X143510000Y-83312000D03*
D11*
X140970000Y-83312000D03*
%TD*%
D10*
%TO.C,D10*%
X143510000Y-97536000D03*
D11*
X140970000Y-97536000D03*
%TD*%
D10*
%TO.C,D4*%
X143510000Y-68072000D03*
D11*
X140970000Y-68072000D03*
%TD*%
D13*
%TO.C,R3*%
X150518500Y-88138000D03*
X148693500Y-88138000D03*
%TD*%
%TO.C,R6*%
X150518500Y-108458000D03*
X148693500Y-108458000D03*
%TD*%
D10*
%TO.C,D2*%
X119888000Y-75692000D03*
D11*
X122428000Y-75692000D03*
%TD*%
D12*
%TO.C,R4*%
X150494000Y-92964000D03*
X148844000Y-92964000D03*
%TD*%
D10*
%TO.C,D9*%
X119888000Y-112776000D03*
D11*
X122428000Y-112776000D03*
%TD*%
D10*
%TO.C,D12*%
X143510000Y-112776000D03*
D11*
X140970000Y-112776000D03*
%TD*%
D10*
%TO.C,D11*%
X143510000Y-105156000D03*
D11*
X140970000Y-105156000D03*
%TD*%
D10*
%TO.C,D1*%
X119888000Y-68012000D03*
D11*
X122428000Y-68012000D03*
%TD*%
D12*
%TO.C,R1*%
X150431000Y-72898000D03*
X148781000Y-72898000D03*
%TD*%
D10*
%TO.C,D7*%
X119888000Y-97536000D03*
D11*
X122428000Y-97536000D03*
%TD*%
D10*
%TO.C,D8*%
X119888000Y-105156000D03*
D11*
X122428000Y-105156000D03*
%TD*%
D14*
%TO.C,J1*%
X158242000Y-99568000D03*
D15*
X158242000Y-97028000D03*
X158242000Y-94488000D03*
X158242000Y-91948000D03*
X158242000Y-89408000D03*
X158242000Y-86868000D03*
X158242000Y-84328000D03*
%TD*%
D12*
%TO.C,R5*%
X150431000Y-100838000D03*
X148781000Y-100838000D03*
%TD*%
M02*
